<svg xmlns="http://www.w3.org/2000/svg" xmlns:xlink="http://www.w3.org/1999/xlink" version="1.1" x="0px" y="0px" viewBox="0 0 100 125" fill="white" xml:space="preserve"><path d="M86.5,51.3c0,7.5-0.7,14.8-2,21.8c-0.2,1-1,1.6-2,1.6c-0.1,0-0.3,0-0.4,0c-1.1-0.2-1.8-1.3-1.6-2.3c1.3-6.8,2-13.9,2-21.1  c0-7.2-0.7-14.5-2-21.7c-0.2-1.1,0.5-2.1,1.6-2.3c1.1-0.2,2.1,0.5,2.3,1.6C85.8,36.3,86.5,43.8,86.5,51.3z M55.9,22  c2.3,9.7,3.5,19.5,3.5,29.2c0,9.6-1.1,19-3.4,27.9c-0.2,0.7-0.5,1.3-0.9,1.8c-0.8,1.1-2,1.7-3.3,1.9c-0.2,0-0.4,0-0.6,0  c-1.1,0-2.2-0.4-3-1L32.8,70.1c0,0,0,0,0,0c-0.2-0.1-0.4-0.2-0.6-0.2h-11c-1.8,0-3.4-1-4.3-2.5c-2.6-4.4-3.9-9.9-3.9-16.1  c0-6.3,1.3-12.1,3.9-17.3c0.8-1.7,2.6-2.8,4.5-2.8h10.9c0.2,0,0.4-0.1,0.6-0.2L48,19.2c0.6-0.4,1.2-0.7,1.9-0.9  c1.3-0.3,2.6-0.1,3.8,0.6C54.8,19.6,55.6,20.7,55.9,22z M55.3,51.3c0-9.4-1.1-18.9-3.3-28.3c-0.1-0.4-0.3-0.5-0.4-0.6  s-0.4-0.2-0.8-0.1c-0.1,0-0.3,0.1-0.4,0.2L35.3,34.1c-0.9,0.7-2,1-3.1,1H21.4c-0.4,0-0.7,0.2-0.9,0.6c-2.3,4.7-3.5,9.9-3.5,15.6  c0,5.5,1.1,10.3,3.3,14.1c0.2,0.3,0.5,0.5,0.9,0.5h11c1.1,0,2.2,0.4,3.1,1l15.2,11.8c0.3,0.2,0.6,0.2,0.7,0.2c0.2,0,0.4-0.1,0.7-0.4  c0.1-0.1,0.1-0.2,0.2-0.4C54.2,69.6,55.3,60.5,55.3,51.3z M72.8,34.6c-1.1,0.1-1.9,1.1-1.7,2.2c0.6,4.8,0.9,9.7,0.9,14.5  c0,4.8-0.3,9.6-0.9,14.2c-0.1,1.1,0.6,2.1,1.7,2.2c0.1,0,0.2,0,0.3,0c1,0,1.9-0.7,2-1.8c0.6-4.8,0.9-9.7,0.9-14.7  c0-5-0.3-10-0.9-14.9C74.9,35.2,73.9,34.4,72.8,34.6z"/></svg>